<?xml version="1.0" encoding="UTF-8" standalone="no"?>
<!DOCTYPE svg PUBLIC "-//W3C//DTD SVG 1.1//EN" "http://www.w3.org/Graphics/SVG/1.1/DTD/svg11.dtd">
<svg width="100%" height="100%" viewBox="0 0 99 23" version="1.1" xmlns="http://www.w3.org/2000/svg" xmlns:xlink="http://www.w3.org/1999/xlink" xml:space="preserve" xmlns:serif="http://www.serif.com/" style="fill-rule:evenodd;clip-rule:evenodd;stroke-linecap:round;stroke-linejoin:round;stroke-miterlimit:1.5;">
    <g id="L1" transform="matrix(0.879576,0,0,0.879576,-92.299555,-88.480257)">
        <g transform="matrix(0.962437,0,0,1.02608,7.882502,22.369771)">
            <path d="M102.805,91.507C99.729,81.682 221.242,82.134 215.587,91.507C209.932,100.88 105.88,101.332 102.805,91.507Z" style="fill:rgb(3,167,255);stroke:black;stroke-width:1.14px;"/>
        </g>
        <g transform="matrix(0.953649,0,0,0.96391,9.656011,4.553727)">
            <path d="M102.524,108.875C104.077,101.812 216.211,99.706 215.555,108.875C214.9,118.044 215.555,116.263 215.555,116.263L102.524,116.263C102.524,116.263 100.972,115.938 102.524,108.875Z" style="fill:rgb(95,109,255);"/>
            <path d="M216.401,117.06L216.343,117.153L216.005,117.412L215.579,117.541L215.308,117.541L215.039,117.479L214.903,117.41L102.524,117.41C102.355,117.41 102.194,117.373 102.049,117.309L102.039,117.307L102.026,117.299C101.935,117.255 101.85,117.201 101.774,117.136L101.601,117.026C101.43,116.874 101.19,116.61 100.995,116.106C100.669,115.261 100.372,113.272 101.392,108.632C101.507,108.109 101.889,107.539 102.663,107.047C103.759,106.351 105.886,105.676 108.839,105.093C124.653,101.973 165.429,100.682 191.797,102.353C201.818,102.988 209.782,104.071 213.592,105.607C214.775,106.084 215.606,106.632 216.081,107.187C216.561,107.746 216.755,108.343 216.711,108.956C216.479,112.207 216.412,114.061 216.424,115.102C216.426,115.254 216.431,115.397 216.438,115.521C216.61,115.721 216.714,115.98 216.714,116.263C216.714,116.412 216.685,116.554 216.633,116.684L216.426,117.02C216.213,117.259 215.902,117.41 215.555,117.41C215.555,117.41 216.047,117.44 216.401,117.06ZM216.633,116.684C216.572,116.84 216.491,116.963 216.401,117.06L216.426,117.02C216.513,116.921 216.584,116.808 216.633,116.684ZM215.354,116.263C215.44,116.577 215.555,116.263 215.555,116.263L215.354,116.263ZM215.354,116.263C215.236,115.83 215.175,114.196 215.555,108.875C216.211,99.706 104.077,101.812 102.524,108.875C100.972,115.938 102.524,116.263 102.524,116.263L215.354,116.263Z"/>
        </g>
    </g>
</svg>
