<?xml version="1.0" encoding="UTF-8" standalone="no"?>
<!DOCTYPE svg PUBLIC "-//W3C//DTD SVG 1.1//EN" "http://www.w3.org/Graphics/SVG/1.1/DTD/svg11.dtd">
<svg width="100%" height="100%" viewBox="0 0 178 103" version="1.1" xmlns="http://www.w3.org/2000/svg" xmlns:xlink="http://www.w3.org/1999/xlink" xml:space="preserve" xmlns:serif="http://www.serif.com/" style="fill-rule:evenodd;clip-rule:evenodd;stroke-linecap:round;stroke-linejoin:round;stroke-miterlimit:1.5;">
    <g id="dpad" transform="matrix(1,0,0,1,0,-193.410011)">
        <g id="Top" transform="matrix(1,0,0,1,-135.474537,-62.067744)">
            <g transform="matrix(0,-1.118479,1.045511,0,-103.009344,411.271947)">
                <path d="M127.918,236.484L127.918,253.247C127.918,257.872 124.407,261.628 120.083,261.628L101.081,261.628C96.757,261.628 93.246,257.872 93.246,253.247L93.246,236.484C93.246,231.858 96.757,228.103 101.081,228.103L120.083,228.103C124.407,228.103 127.918,231.858 127.918,236.484Z" style="fill:rgb(0,28,43);"/>
            </g>
            <g transform="matrix(0,-0.60816,1,0,-91.206114,349.292147)">
                <path d="M130.36,230.836L153.409,244.206L130.36,257.576C128.015,253.512 126.781,248.901 126.781,244.206C126.781,239.512 128.015,234.9 130.36,230.836Z" style="fill:rgb(3,167,255);stroke:rgb(3,167,255);stroke-width:1.33px;"/>
            </g>
        </g>
        <g id="Right" transform="matrix(1,0,0,1,-37.05982,-33.648953)">
            <g transform="matrix(1.118479,0,0,1.045511,71.986458,-11.285295)">
                <path d="M127.918,236.484L127.918,253.247C127.918,257.872 124.407,261.628 120.083,261.628L101.081,261.628C96.757,261.628 93.246,257.872 93.246,253.247L93.246,236.484C93.246,231.858 96.757,228.103 101.081,228.103L120.083,228.103C124.407,228.103 127.918,231.858 127.918,236.484Z" style="fill:rgb(0,28,43);"/>
            </g>
            <g transform="matrix(-0.565294,0,-0,-1,252.133443,488.930163)">
                <path d="M130.36,230.836L153.409,244.206L130.36,257.576C128.015,253.512 126.781,248.901 126.781,244.206C126.781,239.512 128.015,234.9 130.36,230.836Z" style="fill:rgb(3,167,255);stroke:rgb(3,167,255);stroke-width:1.35px;"/>
            </g>
        </g>
        <g id="Bottom" transform="matrix(1,0,0,1,-97.909479,10.618791)">
            <g transform="matrix(0,-1.118479,1.045511,0,-103.009344,326.004203)">
                <path d="M127.918,236.484L127.918,253.247C127.918,257.872 124.407,261.628 120.083,261.628L101.081,261.628C96.757,261.628 93.246,257.872 93.246,253.247L93.246,236.484C93.246,231.858 96.757,228.103 101.081,228.103L120.083,228.103C124.407,228.103 127.918,231.858 127.918,236.484Z" style="fill:rgb(0,28,43);"/>
            </g>
            <g transform="matrix(0,0.622,-1,0,397.206114,138.511362)">
                <path d="M130.36,230.836L153.409,244.206L130.36,257.576C128.015,253.512 126.781,248.901 126.781,244.206C126.781,239.512 128.015,234.9 130.36,230.836Z" style="fill:rgb(3,167,255);stroke:rgb(3,167,255);stroke-width:1.32px;"/>
            </g>
        </g>
        <g id="Left" transform="matrix(1,0,0,1,-15.035427,-33.940477)">
            <g transform="matrix(1.118479,0,0,1.045511,-13.402379,-11.133393)">
                <path d="M127.918,236.484L127.918,253.247C127.918,257.872 124.407,261.628 120.083,261.628L101.081,261.628C96.757,261.628 93.246,257.872 93.246,253.247L93.246,236.484C93.246,231.858 96.757,228.103 101.081,228.103L120.083,228.103C124.407,228.103 127.918,231.858 127.918,236.484Z" style="fill:rgb(0,28,43);"/>
            </g>
            <g transform="matrix(0.583249,0,0,1,51.59016,0.669837)">
                <path d="M130.36,230.836L153.409,244.206L130.36,257.576C128.015,253.512 126.781,248.901 126.781,244.206C126.781,239.512 128.015,234.9 130.36,230.836Z" style="fill:rgb(3,167,255);stroke:rgb(3,167,255);stroke-width:1.34px;"/>
            </g>
        </g>
    </g>
    <g id="dpad1" serif:id="dpad" transform="matrix(1,0,0,1,0,-141.910011)">
        <g id="Top1" serif:id="Top" transform="matrix(1,0,0,1,-135.474537,-62.067744)">
            <g transform="matrix(0,-1.118479,1.045511,0,-103.009344,411.271947)">
                <path d="M127.918,236.484L127.918,253.247C127.918,257.872 124.407,261.628 120.083,261.628L101.081,261.628C96.757,261.628 93.246,257.872 93.246,253.247L93.246,236.484C93.246,231.858 96.757,228.103 101.081,228.103L120.083,228.103C124.407,228.103 127.918,231.858 127.918,236.484Z" style="fill:rgb(153,219,255);"/>
            </g>
            <g transform="matrix(0,-0.60816,1,0,-91.206114,349.292147)">
                <path d="M130.36,230.836L153.409,244.206L130.36,257.576C128.015,253.512 126.781,248.901 126.781,244.206C126.781,239.512 128.015,234.9 130.36,230.836Z" style="fill:rgb(3,167,255);stroke:rgb(3,167,255);stroke-width:1.33px;"/>
            </g>
        </g>
        <g id="Right1" serif:id="Right" transform="matrix(1,0,0,1,-37.05982,-33.648953)">
            <g transform="matrix(1.118479,0,0,1.045511,71.986458,-11.285295)">
                <path d="M127.918,236.484L127.918,253.247C127.918,257.872 124.407,261.628 120.083,261.628L101.081,261.628C96.757,261.628 93.246,257.872 93.246,253.247L93.246,236.484C93.246,231.858 96.757,228.103 101.081,228.103L120.083,228.103C124.407,228.103 127.918,231.858 127.918,236.484Z" style="fill:rgb(153,219,255);"/>
            </g>
            <g transform="matrix(-0.565294,0,-0,-1,252.133443,488.930163)">
                <path d="M130.36,230.836L153.409,244.206L130.36,257.576C128.015,253.512 126.781,248.901 126.781,244.206C126.781,239.512 128.015,234.9 130.36,230.836Z" style="fill:rgb(3,167,255);stroke:rgb(3,167,255);stroke-width:1.35px;"/>
            </g>
        </g>
        <g id="Bottom1" serif:id="Bottom" transform="matrix(1,0,0,1,-97.909479,10.618791)">
            <g transform="matrix(0,-1.118479,1.045511,0,-103.009344,326.004203)">
                <path d="M127.918,236.484L127.918,253.247C127.918,257.872 124.407,261.628 120.083,261.628L101.081,261.628C96.757,261.628 93.246,257.872 93.246,253.247L93.246,236.484C93.246,231.858 96.757,228.103 101.081,228.103L120.083,228.103C124.407,228.103 127.918,231.858 127.918,236.484Z" style="fill:rgb(153,219,255);"/>
            </g>
            <g transform="matrix(0,0.622,-1,0,397.206114,138.511362)">
                <path d="M130.36,230.836L153.409,244.206L130.36,257.576C128.015,253.512 126.781,248.901 126.781,244.206C126.781,239.512 128.015,234.9 130.36,230.836Z" style="fill:rgb(3,167,255);stroke:rgb(3,167,255);stroke-width:1.32px;"/>
            </g>
        </g>
        <g id="Left1" serif:id="Left" transform="matrix(1,0,0,1,-15.035427,-33.940477)">
            <g transform="matrix(1.118479,0,0,1.045511,-13.402379,-11.133393)">
                <path d="M127.918,236.484L127.918,253.247C127.918,257.872 124.407,261.628 120.083,261.628L101.081,261.628C96.757,261.628 93.246,257.872 93.246,253.247L93.246,236.484C93.246,231.858 96.757,228.103 101.081,228.103L120.083,228.103C124.407,228.103 127.918,231.858 127.918,236.484Z" style="fill:rgb(153,219,255);"/>
            </g>
            <g transform="matrix(0.583249,0,0,1,51.59016,0.669837)">
                <path d="M130.36,230.836L153.409,244.206L130.36,257.576C128.015,253.512 126.781,248.901 126.781,244.206C126.781,239.512 128.015,234.9 130.36,230.836Z" style="fill:rgb(3,167,255);stroke:rgb(3,167,255);stroke-width:1.34px;"/>
            </g>
        </g>
    </g>
</svg>
