<?xml version="1.0" encoding="UTF-8" standalone="no"?>
<!DOCTYPE svg PUBLIC "-//W3C//DTD SVG 1.1//EN" "http://www.w3.org/Graphics/SVG/1.1/DTD/svg11.dtd">
<svg width="100%" height="100%" viewBox="0 0 200 91" version="1.1" xmlns="http://www.w3.org/2000/svg" xmlns:xlink="http://www.w3.org/1999/xlink" xml:space="preserve" xmlns:serif="http://www.serif.com/" style="fill-rule:evenodd;clip-rule:evenodd;stroke-linecap:round;stroke-linejoin:round;stroke-miterlimit:1.5;">
    <g id="L2" transform="matrix(0.877857,0,0,0.877857,-90.04256,-0.124065)">
        <g transform="matrix(1.080182,0,0,1,34.773603,-3.633977)">
            <path d="M115.505,8.905L159.54,97.285L71.47,97.285L115.505,8.905Z" style="fill:rgb(95,109,255);"/>
        </g>
        <g transform="matrix(-0.936776,0,0,1,308.778635,3.124716)">
            <path d="M108.535,90.526C113.12,-9.763 162.351,-0.193 164.117,0.128" style="fill:rgb(95,109,255);stroke:black;stroke-width:1.18px;"/>
        </g>
        <g transform="matrix(0.904632,0,0,1,13.789262,3.124716)">
            <path d="M108.535,90.526C113.12,-9.763 164.984,0 164.984,0" style="fill:rgb(95,109,255);stroke:black;stroke-width:1.19px;"/>
        </g>
        <g transform="matrix(1,0,0,1.02608,-0.222857,-2.630229)">
            <path d="M111.974,93.651C108.898,83.826 212.76,84.278 207.105,93.651C201.451,103.024 115.05,103.476 111.974,93.651Z" style="fill:rgb(3,167,255);stroke:black;stroke-width:1.12px;"/>
        </g>
    </g>
    <g id="L21" serif:id="L2" transform="matrix(-0.877857,0,0,0.877857,290.04256,-0.124065)">
        <g transform="matrix(1.080182,0,0,1,34.773603,-3.633977)">
            <path d="M115.505,8.905L159.54,97.285L71.47,97.285L115.505,8.905Z" style="fill:rgb(95,109,255);"/>
        </g>
        <g transform="matrix(-0.936776,0,0,1,308.778635,3.124716)">
            <path d="M108.535,90.526C113.12,-9.763 162.351,-0.193 164.117,0.128" style="fill:rgb(95,109,255);stroke:black;stroke-width:1.18px;"/>
        </g>
        <g transform="matrix(0.904632,0,0,1,13.789262,3.124716)">
            <path d="M108.535,90.526C113.12,-9.763 164.984,0 164.984,0" style="fill:rgb(95,109,255);stroke:black;stroke-width:1.19px;"/>
        </g>
        <g transform="matrix(1,0,0,1.02608,-0.222857,-2.630229)">
            <path d="M111.974,93.651C108.898,83.826 212.76,84.278 207.105,93.651C201.451,103.024 115.05,103.476 111.974,93.651Z" style="fill:rgb(3,167,255);stroke:black;stroke-width:1.12px;"/>
        </g>
    </g>
</svg>
